HIERARCHY
ROOT hip
{
  OFFSET 0 0 0
  CHANNELS 6 Xposition Yposition Zposition Zrotation Yrotation Xrotation
  JOINT abdomen
  {
    OFFSET 0 20.6881 -0.73152
    CHANNELS 3 Zrotation Xrotation Yrotation
    JOINT chest
    {
      OFFSET 0 11.7043 -0.48768
      CHANNELS 3 Zrotation Xrotation Yrotation
      JOINT neck
      {
        OFFSET 0 22.1894 -2.19456
        CHANNELS 3 Zrotation Xrotation Yrotation
        JOINT head
        {
          OFFSET -0.24384 7.07133 1.2192
          CHANNELS 3 Zrotation Xrotation Yrotation
          JOINT leftEye
          {
            OFFSET 4.14528 8.04674 8.04672
            CHANNELS 3 Zrotation Xrotation Yrotation
            End Site
            {
              OFFSET 1 0 0
            }
          }
          JOINT rightEye
          {
            OFFSET -3.6576 8.04674 8.04672
            CHANNELS 3 Zrotation Xrotation Yrotation
            End Site
            {
              OFFSET 1 0 0
            }
          }
        }
      }
      JOINT rCollar
      {
        OFFSET -2.68224 19.2634 -4.8768
        CHANNELS 3 Zrotation Xrotation Yrotation
        JOINT rShldr
        {
          OFFSET -8.77824 -1.95073 1.46304
          CHANNELS 3 Zrotation Xrotation Yrotation
          JOINT rForeArm
          {
            OFFSET -28.1742 -1.7115 0.48768
            CHANNELS 3 Zrotation Xrotation Yrotation
            JOINT rHand
            {
              OFFSET -22.5879 0.773209 7.07136
              CHANNELS 3 Zrotation Xrotation Yrotation
              JOINT rThumb1
              {
                OFFSET -1.2192 -0.487915 3.41376
                CHANNELS 3 Zrotation Xrotation Yrotation
                JOINT rThumb2
                {
                  OFFSET -3.37035 -0.52449 3.41376
                  CHANNELS 3 Zrotation Xrotation Yrotation
                  End Site
                  {
                    OFFSET -1.78271 -1.18214 1.43049
                  }
                }
              }
              JOINT rIndex1
              {
                OFFSET -7.75947 0.938293 5.60832
                CHANNELS 3 Zrotation Xrotation Yrotation
                JOINT rIndex2
                {
                  OFFSET -2.54057 -0.884171 1.56538
                  CHANNELS 3 Zrotation Xrotation Yrotation
                  End Site
                  {
                    OFFSET -1.62519 -0.234802 1.16502
                  }
                }
              }
              JOINT rMid1
              {
                OFFSET -8.24714 1.18213 3.41376
                CHANNELS 3 Zrotation Xrotation Yrotation
                JOINT rMid2
                {
                  OFFSET -3.10165 -0.590103 1.0647
                  CHANNELS 3 Zrotation Xrotation Yrotation
                  End Site
                  {
                    OFFSET -2.48547 -0.328903 0.83742
                  }
                }
              }
              JOINT rRing1
              {
                OFFSET -8.82822 0.546677 1.51678
                CHANNELS 3 Zrotation Xrotation Yrotation
                JOINT rRing2
                {
                  OFFSET -2.60934 -0.819778 -0.0198488
                  CHANNELS 3 Zrotation Xrotation Yrotation
                  End Site
                  {
                    OFFSET -2.33842 -0.294052 0.168128
                  }
                }
              }
              JOINT rPinky1
              {
                OFFSET -8.27202 -0.0477905 -0.4584
                CHANNELS 3 Zrotation Xrotation Yrotation
                JOINT rPinky2
                {
                  OFFSET -1.82734 -0.647385 -0.700984
                  CHANNELS 3 Zrotation Xrotation Yrotation
                  End Site
                  {
                    OFFSET -1.69225 -0.51767 -0.607171
                  }
                }
              }
            }
          }
        }
      }
      JOINT lCollar
      {
        OFFSET 2.68224 19.2634 -4.8768
        CHANNELS 3 Zrotation Xrotation Yrotation
        JOINT lShldr
        {
          OFFSET 8.77824 -1.95073 1.46304
          CHANNELS 3 Zrotation Xrotation Yrotation
          JOINT lForeArm
          {
            OFFSET 28.1742 -1.7115 0.48768
            CHANNELS 3 Zrotation Xrotation Yrotation
            JOINT lHand
            {
              OFFSET 22.5879 0.773209 7.07136
              CHANNELS 3 Zrotation Xrotation Yrotation
              JOINT lThumb1
              {
                OFFSET 1.2192 -0.487915 3.41376
                CHANNELS 3 Zrotation Xrotation Yrotation
                JOINT lThumb2
                {
                  OFFSET 3.37035 -0.52449 3.41376
                  CHANNELS 3 Zrotation Xrotation Yrotation
                  End Site
                  {
                    OFFSET 1.78271 -1.18214 1.43049
                  }
                }
              }
              JOINT lIndex1
              {
                OFFSET 7.75947 0.938293 5.60832
                CHANNELS 3 Zrotation Xrotation Yrotation
                JOINT lIndex2
                {
                  OFFSET 2.54057 -0.884171 1.56538
                  CHANNELS 3 Zrotation Xrotation Yrotation
                  End Site
                  {
                    OFFSET 1.62519 -0.234802 1.16502
                  }
                }
              }
              JOINT lMid1
              {
                OFFSET 8.24714 1.18213 3.41376
                CHANNELS 3 Zrotation Xrotation Yrotation
                JOINT lMid2
                {
                  OFFSET 3.10165 -0.590103 1.0647
                  CHANNELS 3 Zrotation Xrotation Yrotation
                  End Site
                  {
                    OFFSET 2.48547 -0.328903 0.83742
                  }
                }
              }
              JOINT lRing1
              {
                OFFSET 8.82822 0.546677 1.51678
                CHANNELS 3 Zrotation Xrotation Yrotation
                JOINT lRing2
                {
                  OFFSET 2.60934 -0.819778 -0.0198488
                  CHANNELS 3 Zrotation Xrotation Yrotation
                  End Site
                  {
                    OFFSET 2.33842 -0.294052 0.168128
                  }
                }
              }
              JOINT lPinky1
              {
                OFFSET 8.27202 -0.0477905 -0.4584
                CHANNELS 3 Zrotation Xrotation Yrotation
                JOINT lPinky2
                {
                  OFFSET 1.82734 -0.647385 -0.700984
                  CHANNELS 3 Zrotation Xrotation Yrotation
                  End Site
                  {
                    OFFSET 1.69225 -0.51767 -0.607171
                  }
                }
              }
            }
          }
        }
      }
    }
  }
  JOINT rButtock
  {
    OFFSET -8.77824 4.35084 1.2192
    CHANNELS 3 Zrotation Xrotation Yrotation
    JOINT rThigh
    {
      OFFSET 0 -1.70687 -2.19456
      CHANNELS 3 Zrotation Xrotation Yrotation
      JOINT rShin
      {
        OFFSET 0 -36.8199 0.73152
        CHANNELS 3 Zrotation Xrotation Yrotation
        JOINT rFoot
        {
          OFFSET 0.73152 -45.1104 -5.12064
          CHANNELS 3 Zrotation Xrotation Yrotation
          End Site
          {
            OFFSET -1.1221 -3.69964 12.103
          }
        }
      }
    }
  }
  JOINT lButtock
  {
    OFFSET 8.77824 4.35084 1.2192
    CHANNELS 3 Zrotation Xrotation Yrotation
    JOINT lThigh
    {
      OFFSET 0 -1.70687 -2.19456
      CHANNELS 3 Zrotation Xrotation Yrotation
      JOINT lShin
      {
        OFFSET 0 -36.8199 0.73152
        CHANNELS 3 Zrotation Xrotation Yrotation
        JOINT lFoot
        {
          OFFSET -0.73152 -45.1104 -5.12064
          CHANNELS 3 Zrotation Xrotation Yrotation
          End Site
          {
            OFFSET 1.1221 -3.69964 12.103
          }
        }
      }
    }
  }
}
MOTION
Frames:	4
Frame Time:	0.00833333
98.2364 85.1388 127.18 0.0 0.0 0.0 0.410561 -0.00336363 0.0117798 0.113451 -0.00539418 0.0196579 8.254e-16 7.95139e-16 -8.69683e-17 2.38231e-15 9.54166e-15 -2.71776e-16 -0.0 0.0 0.0 -0.0 0.0 0.0 4.9564e-16 -1.94126e-18 9.93923e-17 9.51953e-15 -2.23633e-16 0.0 1.4561e-13 -4.55217e-14 -2.54444e-14 1.64158e-12 2.86498e-14 -1.65389e-13 3.8762e-12 -3.39021e-14 -4.0075e-13 6.67678e-12 -6.04305e-14 -7.00517e-13 3.87988e-12 -3.73715e-14 -4.0075e-13 7.73091 5.47488 0.417314 3.8757e-12 -3.40916e-14 -4.07111e-13 2.90554 0.965183 0.102902 3.88596e-12 -3.39922e-14 -4.05521e-13 10.2786 0.731801 0.0259123 3.87153e-12 -3.22031e-14 -4.0075e-13 2.22167 -0.733487 -0.20892 2.99525e-16 -1.94126e-18 -1.98785e-16 7.17818e-15 -5.2181e-16 -1.78906e-15 1.40889e-13 3.83654e-14 -9.54166e-15 1.64689e-12 -6.08033e-14 -1.74931e-13 3.88192e-12 -4.29003e-14 -4.13472e-13 6.71733e-12 -6.99722e-14 -7.02107e-13 3.8763e-12 -4.29375e-14 -4.0393e-13 -7.73091 5.47488 -0.417314 3.88231e-12 -4.31363e-14 -4.16653e-13 -2.90554 0.965183 -0.102902 3.8755e-12 -4.32357e-14 -4.09496e-13 -10.2786 0.731801 -0.0259123 3.89161e-12 -3.93594e-14 -4.13472e-13 -2.22167 -0.733487 0.20892 -2.03217e-16 0.0 -3.88251e-19 0.771183 -4.17174 -0.0657014 -0.00265899 2.0054 -0.0183071 -0.462429 2.16694 0.0961814 2.03217e-16 0.0 3.88251e-19 -0.142657 -2.55999 0.0260559 0.00715902 -0.914029 0.062135 0.453175 3.47455 -0.121139
98.5241 83.8155 124.09 178.382 -3.1917 -152.778 -1.42413 -8.91528 -0.263807 1.15674 3.9589 -0.197593 -0.0274435 2.66708 -0.950748 1.28089 -5.27673 -1.7514 -0.0 0.0 0.0 -0.0 0.0 0.0 2.23598e-14 2.17009e-13 6.15378e-15 22.5594 1.71133 -0.344692 -3.99007 -1.76952 6.27839 0.000234492 0.344533 0.0484179 -4.71986e-10 1.14846e-09 -1.76969e-09 -8.20421e-10 1.98598e-09 -3.05801e-09 -4.71982e-10 1.14846e-09 -1.76969e-09 7.73091 5.47488 0.417314 -4.71987e-10 1.14846e-09 -1.76969e-09 2.90554 0.965183 0.102902 -4.71977e-10 1.14846e-09 -1.76969e-09 10.2786 0.731801 0.0259123 -4.7199e-10 1.14847e-09 -1.76969e-09 2.22167 -0.733487 -0.20892 2.22347e-14 2.1701e-13 5.91229e-15 -20.9049 7.49827 -2.22347 3.38496 -1.40263 -5.42487 -0.000855858 0.649095 -0.0912032 -9.55186e-10 4.55214e-10 1.4922e-09 -1.64448e-09 7.90688e-10 2.58191e-09 -9.55191e-10 4.55215e-10 1.49221e-09 -7.73091 5.47488 -0.417314 -9.55185e-10 4.55216e-10 1.49219e-09 -2.90554 0.965183 -0.102902 -9.55191e-10 4.55217e-10 1.4922e-09 -10.2786 0.731801 -0.0259123 -9.5518e-10 4.5522e-10 1.4922e-09 -2.22167 -0.733487 0.20892 -2.03217e-16 0.0 -3.88251e-19 1.14504 -12.0908 0.951919 0.00353507 3.98457 0.0397772 -0.633806 -1.81625 -0.798287 2.03217e-16 0.0 3.88251e-19 -0.565784 -9.18421 -2.06018 0.0110607 0.893157 0.052313 0.567614 1.97755 -0.502537
98.5175 83.8125 124.091 178.36 -3.1511 -152.79 -3.46205 -18.3346 -0.576298 2.29237 8.14958 -0.43003 0.0368472 5.48488 -1.96001 2.28349 -10.8475 -3.64558 -0.0 0.0 0.0 -0.0 0.0 0.0 4.65797e-14 4.52532e-13 1.25421e-14 46.4299 3.51457 -0.710331 -7.78586 -3.56702 12.9295 -0.000157942 0.715402 0.100543 -9.96136e-10 2.38852e-09 -3.68124e-09 -1.73136e-09 4.13033e-09 -6.36113e-09 -9.9613e-10 2.38852e-09 -3.68125e-09 7.73091 5.47488 0.417314 -9.96137e-10 2.38852e-09 -3.68125e-09 2.90554 0.965183 0.102902 -9.96128e-10 2.38852e-09 -3.68125e-09 10.2786 0.731801 0.0259123 -9.96138e-10 2.38852e-09 -3.68124e-09 2.22167 -0.733487 -0.20892 4.65291e-14 4.52533e-13 1.23619e-14 -42.3508 15.3885 -4.70556 6.67776 -2.84462 -11.1731 0.000488369 1.33693 -0.18789 -2.00239e-09 9.33364e-10 3.09446e-09 -3.44751e-09 1.6213e-09 5.35428e-09 -2.0024e-09 9.33366e-10 3.09447e-09 -7.73091 5.47488 -0.417314 -2.00239e-09 9.33368e-10 3.09445e-09 -2.90554 0.965183 -0.102902 -2.00239e-09 9.3337e-10 3.09445e-09 -10.2786 0.731801 -0.0259123 -2.00239e-09 9.33373e-10 3.09445e-09 -2.22167 -0.733487 0.20892 -2.03217e-16 0.0 -3.88251e-19 1.86332 -20.4511 2.11171 0.00563292 6.07525 0.101513 -0.950384 -6.02418 -1.74974 2.03217e-16 0.0 3.88251e-19 -1.55916 -16.1534 -4.38593 0.0158406 2.80404 0.0419827 0.666846 0.395737 -0.907051
98.5089 83.8143 124.084 178.308 -3.0991 -152.807 -5.37662 -26.7366 -0.901846 3.33515 11.8868 -0.644502 0.185305 7.9924 -2.87712 2.84423 -15.7699 -5.43715 -0.0 0.0 0.0 -0.0 0.0 0.0 6.60881e-14 6.51031e-13 1.82626e-14 67.7401 5.13325 -1.03778 -10.8263 -5.05411 18.9024 -0.00104365 1.0336 0.145275 -1.42371e-09 3.44546e-09 -5.30826e-09 -2.47462e-09 5.95805e-09 -9.17264e-09 -1.4237e-09 3.44546e-09 -5.30827e-09 7.73091 5.47488 0.417314 -1.42371e-09 3.44546e-09 -5.30827e-09 2.90554 0.965183 0.102902 -1.4237e-09 3.44546e-09 -5.30826e-09 10.2786 0.731801 0.0259123 -1.42371e-09 3.44546e-09 -5.30826e-09 2.22167 -0.733487 -0.20892 6.6105e-14 6.51033e-13 1.81344e-14 -60.8528 22.3536 -7.15338 9.36826 -4.05726 -16.3117 0.00363481 1.94726 -0.27375 -2.87332e-09 1.36573e-09 4.47742e-09 -4.94687e-09 2.3722e-09 7.74715e-09 -2.87333e-09 1.36573e-09 4.47743e-09 -7.73091 5.47488 -0.417314 -2.87332e-09 1.36573e-09 4.47741e-09 -2.90554 0.965183 -0.102902 -2.87332e-09 1.36574e-09 4.47742e-09 -10.2786 0.731801 -0.0259123 -2.87332e-09 1.36574e-09 4.47742e-09 -2.22167 -0.733487 0.20892 -2.03217e-16 0.0 -3.88251e-19 2.83403 -27.8943 3.30818 0.00378156 7.9429 0.157143 -1.35364 -9.77311 -2.62399 2.03217e-16 0.0 3.88251e-19 -2.95881 -22.3138 -6.65359 0.0207175 4.50753 0.0327669 0.736715 -1.01599 -1.26508
